Coordinates
version=1
nRows=14
nColumns=36
inDegrees=yes

Units are S.I. units (second, meters, Newtons, ...)
If the header above contains a line with 'inDegrees', this indicates whether rotational values are in degrees (yes) or radians (no).

endheader
time	pelvis_tilt	pelvis_list	pelvis_rotation	pelvis_tx	pelvis_ty	pelvis_tz	hip_flexion_r	hip_adduction_r	hip_rotation_r	knee_angle_r	knee_angle_r_beta	ankle_angle_r	subtalar_angle_r	mtp_angle_r	hip_flexion_l	hip_adduction_l	hip_rotation_l	knee_angle_l	knee_angle_l_beta	ankle_angle_l	subtalar_angle_l	mtp_angle_l	lumbar_extension	lumbar_bending	lumbar_rotation	arm_flex_r	arm_add_r	arm_rot_r	elbow_flex_r	pro_sup_r	arm_flex_l	arm_add_l	arm_rot_l	elbow_flex_l	pro_sup_l
     30.05000000	     -0.67217841	      3.52919008	      4.24297342	      1.05825373	      0.92233598	      0.75890842	    -13.68553043	     -2.75415456	      4.91540451	      7.14604071	      0.12472194	     12.42402339	      1.14339722	     -7.49999987	     28.01037602	     -0.52346732	      1.26357404	     11.71188545	      0.20441096	      6.43047968	     -8.21952583	     -7.49999987	    -17.85256614	     -5.24248564	      9.93604010	      4.22136541	    -15.36722028	      5.92661775	     36.81179392	     70.51894149	      2.29163890	     -9.04359841	      4.45080344	     14.03467322	     70.92132444
     30.06666670	     -1.71867597	      4.47629595	      4.64667497	      1.05692326	      0.91236810	      0.75843628	    -14.01355980	     -3.48298485	      5.32741204	      7.52213956	      0.13128610	     11.92181076	      1.32483132	     -7.49999987	     29.92069078	      0.90663293	      1.93701684	     10.66579353	      0.18615321	      8.43289927	     -7.00015881	     -7.49999987	    -16.71246964	     -6.72680887	      9.51850542	      4.76459243	    -14.82374549	      7.13758762	     36.80486896	     70.52681575	      2.08619263	     -9.43093600	      4.01950760	     12.79740670	     71.15580305
     30.08333330	     -2.45610680	      5.38801944	      4.81244366	      1.05683200	      0.90069539	      0.75653692	    -14.30494816	     -4.26218169	      6.08758383	      8.27920761	      0.14449943	     12.08757725	      0.48548070	     -7.49999987	     31.47403677	      2.44355233	      2.63246821	     11.36270764	      0.19831666	      9.76433542	     -6.79081093	     -7.49999987	    -16.03431396	     -8.21665736	      9.31260205	      5.35843363	    -14.25906478	      7.70565351	     36.98182189	     70.72834388	      1.81012731	     -9.90440802	      3.65284926	     12.55379538	     71.37331124
     30.10000000	     -2.97333180	      5.91258281	      4.74886598	      1.05863793	      0.89281476	      0.75396169	    -14.39102340	     -4.80912771	      6.57839880	      9.62979572	      0.16807164	     12.82243884	     -0.28605335	     -7.49999987	     32.61626521	      3.76142458	      3.41862091	     13.42400662	      0.23429311	      9.95396130	     -7.43046962	     -7.49999987	    -15.47020200	     -9.24078882	      9.36760414	      5.92358879	    -13.98437568	      8.73159464	     37.08109262	     70.89469715	      1.72050038	    -10.06256026	      2.91659125	     11.94575017	     71.53264722
     30.11666670	     -3.09108059	      6.00443706	      4.53866509	      1.06175538	      0.89115430	      0.75215775	    -14.50662200	     -5.02473483	      6.73155697	     11.63985370	      0.20315377	     13.31708817	     -0.86572057	     -7.49999987	     32.97881264	      4.64846710	      3.75956967	     16.04593930	      0.28005447	      8.97065636	     -7.59495227	     -7.49999987	    -15.23176988	     -9.67224786	      9.77987259	      6.05952717	    -13.87649262	      9.23331356	     37.20789611	     71.04399588	      1.61986094	    -10.09153716	      2.56954457	     11.83229632	     71.77956122
     30.13333330	     -2.97910840	      5.75135555	      4.30591127	      1.06514413	      0.89241224	      0.75109435	    -14.53844782	     -4.91756817	      6.89348133	     14.27753696	      0.24919003	     12.82646178	     -2.01322062	     -7.49999987	     32.73120745	      5.10064849	      4.07866010	     18.48083618	      0.32255144	      7.02442204	     -7.48226434	     -7.49999987	    -15.06182117	     -9.61520555	     10.16663502	      6.16235891	    -13.84347182	     10.14002886	     36.70931927	     71.04195808	      1.62397571	     -9.92142758	      1.61114569	     11.31915757	     72.06456038
     30.15000000	     -2.75540055	      5.42286877	      4.11468440	      1.06921336	      0.89236885	      0.74912674	    -14.52537683	     -4.74579387	      6.96297451	     17.26397678	      0.30131324	     11.56043994	     -3.20978673	     -7.49999987	     32.04404927	      5.35569091	      4.61066964	     20.42327417	      0.35645338	      4.81288015	     -7.44931021	     -7.49999987	    -14.99343223	     -9.40190839	     10.56218258	      5.98347204	    -13.77126094	     10.70190467	     36.18876372	     70.88728907	      1.56528894	     -9.74738704	      0.92652912	     11.18385887	     72.43532801
     30.16666670	     -2.48014904	      5.32110097	      4.06882039	      1.07530710	      0.89132422	      0.74403037	    -14.54276591	     -4.88759196	      6.36123337	     20.35493172	      0.35526058	      9.97501252	     -3.56912246	     -7.49999987	     31.04972624	      5.75613278	      5.03400076	     22.08166369	      0.38539774	      3.35260140	     -7.00716084	     -7.49999987	    -14.95007566	     -9.29699542	     10.71927766	      5.46700850	    -13.64845548	     10.78538764	     35.94366022	     70.87594559	      1.32116413	     -9.67429991	      0.87487291	     11.47854573	     72.43959259
     30.18333330	     -2.42765452	      5.34386819	      3.98467722	      1.08272297	      0.89178254	      0.73600286	    -14.25013908	     -5.12745247	      6.37391630	     23.48216352	      0.40984107	      7.24587965	     -5.37263016	     -7.49999987	     30.08473439	      6.34358062	      5.89673881	     23.63008575	      0.41242280	      1.92319873	     -8.16643029	     -7.49999987	    -14.34182023	     -9.29687478	     11.29719807	      4.67540170	    -13.51671572	     10.89273123	     34.72328935	     70.99429449	      1.46122654	     -9.43732952	      0.60205454	     10.97986449	     72.66297117
     30.20000000	     -2.25425147	      5.63013434	      4.02849935	      1.08889643	      0.89369296	      0.72810142	    -13.89367776	     -5.73445349	      5.62134852	     26.90590483	      0.46959663	      3.89279459	     -5.99135655	     -7.49999987	     28.81074460	      7.21464940	      6.54601730	     25.12261032	      0.43847227	      1.63186329	     -8.71659845	     -7.49999987	    -13.83595494	     -9.42293250	     11.24988095	      3.91746401	    -13.18681120	     10.99568332	     33.27343468	     70.87503964	      1.44816747	     -9.21472515	      0.19327127	     10.37142088	     72.48979708
     30.21666670	     -2.13595708	      5.89230050	      4.07211480	      1.09086184	      0.89497760	      0.72360145	    -12.62007914	     -6.29632363	      4.88604394	     31.59261991	      0.55139524	     -0.63445119	     -6.94052231	     -7.49999987	     27.55048255	      8.01873811	      7.18177739	     26.50642840	      0.46262445	      2.14172091	     -9.13346143	     -7.49999987	    -13.31374191	     -9.58360115	     11.36701441	      2.80877723	    -12.92871783	     11.15935349	     32.03952337	     70.72322255	      1.73982460	     -9.10248768	      0.54934765	      9.65194240	     72.50051395
     30.23333330	     -1.83822741	      5.90071021	      4.09782740	      1.08909455	      0.89653640	      0.72132000	    -10.41333283	     -6.50638382	      4.37074139	     37.65580759	      0.65721782	     -5.90926903	     -8.41544765	     -7.49999987	     26.10577357	      8.47501686	      7.86764874	     27.62194668	      0.48209392	      3.22606028	     -9.49475239	     -7.49999987	    -13.33900699	     -9.45565498	     10.99630801	      1.96189919	    -12.61467988	     11.37573500	     30.82470546	     70.52074715	      1.95232017	     -8.99789441	      0.99883283	      9.43802042	     72.30845496
     30.25000000	     -1.52556024	      5.85611326	      4.00444097	      1.08725321	      0.90086342	      0.71884163	     -7.36804180	     -6.70510875	      3.85934560	     44.39486470	      0.77483656	    -10.23500408	     -9.65286372	     -7.49999987	     24.50205885	      8.69957061	      8.32486329	     28.12231274	      0.49082695	      4.46180137	     -9.72095877	     -7.49999987	    -13.67778982	     -9.29294008	     10.32164824	      1.28858436	    -12.44800705	     11.68933681	     30.05470528	     70.86175609	      2.15379677	     -9.00371821	      1.66822389	      9.63866597	     72.84504436
     30.26666670	     -1.27144275	      5.46889970	      3.73039283	      1.08724769	      0.90897676	      0.71629293	     -4.03629976	     -6.51496524	      3.45898131	     50.44331679	      0.88040196	    -13.12774585	    -10.91002978	     -7.49999987	     22.79724036	      8.40891220	      8.62974431	     28.03469280	      0.48929769	      5.56120320	     -9.84589567	     -7.49999987	    -13.93886441	     -8.73156167	      9.67541686	      1.30180205	    -12.42609558	     13.24292994	     27.91839721	     72.24462444	      2.60782809	     -9.08435006	      4.65243336	      9.37537305	     74.45069858
